<?xml version="1.0" standalone="no"?>
<!DOCTYPE svg PUBLIC "-//W3C//DTD SVG 20010904//EN"
 "http://www.w3.org/TR/2001/REC-SVG-20010904/DTD/svg10.dtd">
<svg version="1.0" xmlns="http://www.w3.org/2000/svg"
 width="100.000000pt" height="100.000000pt" viewBox="0 0 100.000000 100.000000"
 preserveAspectRatio="xMidYMid meet">

<g transform="translate(0.000000,100.000000) scale(0.100000,-0.100000)"
fill="#000000" stroke="none">
<path d="M50 690 c-53 -53 -29 -180 35 -180 39 0 60 35 60 102 0 51 -4 63 -24
79 -30 24 -46 24 -71 -1z"/>
<path d="M861 684 c-49 -63 -11 -186 53 -170 57 14 72 122 25 172 -29 31 -53
30 -78 -2z"/>
<path d="M0 440 c0 -21 5 -30 16 -30 9 0 50 -21 90 -46 l74 -46 79 50 79 50
33 -22 c19 -13 55 -35 80 -49 l45 -27 72 45 c40 25 77 45 84 45 6 0 44 -21 85
-46 l73 -46 79 50 c60 38 82 47 95 40 15 -9 17 -6 14 24 -5 49 -34 48 -118 -6
l-70 -46 -74 45 c-40 25 -80 45 -87 45 -8 0 -45 -20 -84 -44 -77 -49 -67 -50
-162 11 -28 18 -59 33 -68 33 -9 0 -48 -20 -86 -45 l-70 -46 -73 46 c-87 54
-106 57 -106 15z"/>
</g>
</svg>
