<?xml version="1.0" encoding="UTF-8"?>
<svg version="1.1" xmlns="http://www.w3.org/2000/svg" width="256" height="256">
<path d="M0 0 C6.48906638 0.18318754 10.90620005 2.12759164 16.4375 5.375 C17.20304199 5.81183105 17.96858398 6.24866211 18.75732422 6.69873047 C27.03769417 11.48335822 35.04203304 16.70140428 43 22 C49.43045088 18.7112455 55.48351402 15.07201398 61.4375 11 C79.02124379 -0.92799693 79.02124379 -0.92799693 87 0 C89.438402 1.03185333 91.59087217 2.07681124 93.875 3.375 C94.5134082 3.72570557 95.15181641 4.07641113 95.80957031 4.43774414 C101.60372357 7.66758358 107.22992477 11.1734611 112.80810547 14.76123047 C118.14266772 18.18102969 121.61914845 19.47016801 128 19 C131.23517503 17.64549732 131.23517503 17.64549732 134.375 15.625 C134.96297363 15.27429443 135.55094727 14.92358887 136.15673828 14.56225586 C138.84565021 12.95444202 141.50794551 11.30454721 144.171875 9.65576172 C145.66422966 8.73510673 147.15986587 7.81975041 148.65869141 6.90966797 C150.10144869 6.03269786 151.5365551 5.14297348 152.96240234 4.23876953 C157.74016418 1.33211577 161.35501704 -0.01665187 167 0 C169.79338787 0.84460522 172.17516178 2.15592346 174.6875 3.625 C175.39575928 4.01872803 176.10401855 4.41245605 176.83374023 4.81811523 C186.40986977 10.22111824 195.71436362 16.11631669 205 22 C205.65983887 21.57533447 206.31967773 21.15066895 206.99951172 20.71313477 C213.04464175 16.83070747 219.1372466 13.02486033 225.25 9.25 C226.00587402 8.77844482 226.76174805 8.30688965 227.54052734 7.82104492 C239.30709131 0.58733218 239.30709131 0.58733218 246.25 0.5 C247.49523437 0.45359375 247.49523437 0.45359375 248.765625 0.40625 C251 1 251 1 252.78515625 3.13671875 C254.18445973 6.43475558 254.30507138 8.7461682 254.1875 12.3125 C254.16042969 13.38113281 254.13335937 14.44976562 254.10546875 15.55078125 C254.05326172 16.76314453 254.05326172 16.76314453 254 18 C253.34 18.33 252.68 18.66 252 19 C251.34 18.67 250.68 18.34 250 18 C244.91304489 17.49204066 241.52229727 18.86039328 237.1875 21.3125 C236.55021973 21.66207764 235.91293945 22.01165527 235.25634766 22.37182617 C228.53524861 26.12916935 222.0983475 30.33487347 215.6796875 34.58203125 C215.0412793 34.9992041 214.40287109 35.41637695 213.74511719 35.84619141 C212.25230755 36.83318334 210.78359067 37.85645147 209.3203125 38.88671875 C206.33979025 40.31676731 205.1485209 39.87769534 202 39 C199.74267578 37.82006836 199.74267578 37.82006836 197.4453125 36.33984375 C196.59001953 35.79666504 195.73472656 35.25348633 194.85351562 34.69384766 C193.95310547 34.11425293 193.05269531 33.5346582 192.125 32.9375 C185.65772965 28.86572274 179.19724677 24.81028009 172.5 21.125 C170.78296875 20.16980469 170.78296875 20.16980469 169.03125 19.1953125 C165.57454404 17.83223 164.44588018 17.73297636 161 19 C158.55945353 20.20878831 156.22827363 21.45341047 153.875 22.8125 C153.19139404 23.19833252 152.50778809 23.58416504 151.8034668 23.98168945 C147.74569004 26.30464934 143.80273227 28.75735142 139.90234375 31.3359375 C139.05494629 31.89176514 138.20754883 32.44759277 137.33447266 33.02026367 C135.67332289 34.11842357 134.02281481 35.23287981 132.38427734 36.36450195 C131.62453613 36.8668335 130.86479492 37.36916504 130.08203125 37.88671875 C129.08006714 38.57060669 129.08006714 38.57060669 128.05786133 39.26831055 C126 40 126 40 123.52954102 39.28637695 C119.32018439 37.1457438 115.22181548 34.84858172 111.125 32.5 C110.19985596 31.97116211 109.27471191 31.44232422 108.3215332 30.89746094 C100.30874005 26.26966266 92.59831328 21.2756338 85 16 C78.24844918 19.45597742 71.85108601 23.30179448 65.5 27.4375 C64.77014893 27.91131104 64.04029785 28.38512207 63.28833008 28.87329102 C60.04939504 30.98358875 56.82564361 33.10986863 53.640625 35.30078125 C52.68671875 35.94402344 51.7328125 36.58726562 50.75 37.25 C49.94046875 37.81203125 49.1309375 38.3740625 48.296875 38.953125 C45.34484855 40.29860644 44.09695436 39.84795854 41 39 C38.75512695 37.88012695 38.75512695 37.88012695 36.48828125 36.48828125 C35.64716797 35.97716797 34.80605469 35.46605469 33.93945312 34.93945312 C33.07255859 34.40255859 32.20566406 33.86566406 31.3125 33.3125 C30.46494141 32.79494141 29.61738281 32.27738281 28.74414062 31.74414062 C25.27651273 29.62664618 21.81300364 27.50267283 18.35717773 25.3659668 C13.82039297 22.5917539 9.40884753 20.12548294 4.4375 18.1875 C-0.92226891 16.07773109 -0.92226891 16.07773109 -2 15 C-2.12537741 12.85692104 -2.17574364 10.70921114 -2.1875 8.5625 C-2.20167969 7.38816406 -2.21585937 6.21382812 -2.23046875 5.00390625 C-2 2 -2 2 0 0 Z " fill="#000000" transform="translate(2,135)"/>
<path d="M0 0 C5.32494045 2.92569662 9.20271535 6.18923585 11.45288086 11.96801758 C12.50642112 15.88083133 12.43986685 19.78506521 12.375 23.8125 C12.36702393 24.6981665 12.35904785 25.58383301 12.35083008 26.49633789 C12.17513445 34.54942471 11.13746669 42.47936919 6 49 C2.1344555 52.39699365 -1.5817648 52.35232904 -6.5 52.3984375 C-10.58620088 51.74719923 -13.13465001 50.06459536 -15.73046875 46.87109375 C-21.57559713 37.108319 -23.10784958 28.25197404 -21 17 C-18.97989699 10.66204649 -15.98162533 5.40186485 -10.75 1.1875 C-7.01301997 -0.42619592 -3.93330181 -0.97456141 0 0 Z " fill="#000000" transform="translate(26,74)"/>
<path d="M0 0 C6.62132576 3.20111889 10.08692067 8.43619465 13 15 C15.43371471 22.30114412 15.3295369 33.12479697 12.25 40.25 C11.12890625 42.2734375 11.12890625 42.2734375 10 44 C9.401875 44.94875 8.80375 45.8975 8.1875 46.875 C4.39077382 50.56324829 0.77325039 51.96833481 -4.5 52.0625 C-9.79650971 50.45463098 -13.31626769 47.65022517 -16.29296875 42.96484375 C-20.75089331 34.35477285 -21.54574973 24.44342413 -19.28125 15.00390625 C-15.98211904 6.26386981 -10.47869889 -2.07702782 0 0 Z " fill="#000000" transform="translate(234,74)"/>
</svg>
